<svg width="22" height="22" viewBox="0 0 22 22" fill="none" xmlns="http://www.w3.org/2000/svg">
<mask id="path-1-outside-1_561_1559" maskUnits="userSpaceOnUse" x="0" y="0" width="22" height="22" fill="black">
<rect fill="white" width="22" height="22"/>
<path fill-rule="evenodd" clip-rule="evenodd" d="M19.1819 20.9989C19.6641 20.9989 20.1265 20.8073 20.4675 20.4663C20.8085 20.1254 21 19.663 21 19.1808V2.81808C21 2.33589 20.8085 1.87346 20.4675 1.5325C20.1265 1.19155 19.6641 1 19.1819 1H2.81923C2.33704 1 1.87461 1.19155 1.53365 1.5325C1.1927 1.87346 1.00115 2.33589 1.00115 2.81808V9.18135C1.00115 9.42244 1.09692 9.65366 1.2674 9.82414C1.43788 9.99461 1.66909 10.0904 1.91019 10.0904C2.15128 10.0904 2.3825 9.99461 2.55297 9.82414C2.72345 9.65366 2.81923 9.42244 2.81923 9.18135V2.81808H19.1819V19.1808H12.8187C12.5776 19.1808 12.3463 19.2765 12.1759 19.447C12.0054 19.6175 11.9096 19.8487 11.9096 20.0898C11.9096 20.3309 12.0054 20.5621 12.1759 20.7326C12.3463 20.9031 12.5776 20.9989 12.8187 20.9989H19.1819ZM13.7277 9.18135V14.6356C13.7277 14.8767 13.6319 15.1079 13.4614 15.2784C13.291 15.4488 13.0597 15.5446 12.8187 15.5446C12.5776 15.5446 12.3463 15.4488 12.1759 15.2784C12.0054 15.1079 11.9096 14.8767 11.9096 14.6356V11.3758L2.55379 20.7334C2.46927 20.8179 2.36893 20.885 2.2585 20.9307C2.14807 20.9765 2.02971 21 1.91019 21C1.79066 21 1.6723 20.9765 1.56187 20.9307C1.45144 20.885 1.35111 20.8179 1.26659 20.7334C1.18207 20.6489 1.11503 20.5486 1.06928 20.4381C1.02354 20.3277 1 20.2093 1 20.0898C1 19.9703 1.02354 19.8519 1.06928 19.7415C1.11503 19.6311 1.18207 19.5307 1.26659 19.4462L10.6242 10.0904H7.36442C7.12333 10.0904 6.89211 9.99461 6.72163 9.82414C6.55115 9.65366 6.45538 9.42244 6.45538 9.18135C6.45538 8.94026 6.55115 8.70904 6.72163 8.53856C6.89211 8.36808 7.12333 8.27231 7.36442 8.27231H12.8187C12.9377 8.27183 13.0557 8.29484 13.1658 8.34001C13.276 8.38518 13.3761 8.45164 13.4606 8.53556C13.545 8.61949 13.6121 8.71925 13.6579 8.82913C13.7037 8.939 13.7275 9.05684 13.7277 9.17589"/>
</mask>
<path fill-rule="evenodd" clip-rule="evenodd" d="M19.1819 20.9989C19.6641 20.9989 20.1265 20.8073 20.4675 20.4663C20.8085 20.1254 21 19.663 21 19.1808V2.81808C21 2.33589 20.8085 1.87346 20.4675 1.5325C20.1265 1.19155 19.6641 1 19.1819 1H2.81923C2.33704 1 1.87461 1.19155 1.53365 1.5325C1.1927 1.87346 1.00115 2.33589 1.00115 2.81808V9.18135C1.00115 9.42244 1.09692 9.65366 1.2674 9.82414C1.43788 9.99461 1.66909 10.0904 1.91019 10.0904C2.15128 10.0904 2.3825 9.99461 2.55297 9.82414C2.72345 9.65366 2.81923 9.42244 2.81923 9.18135V2.81808H19.1819V19.1808H12.8187C12.5776 19.1808 12.3463 19.2765 12.1759 19.447C12.0054 19.6175 11.9096 19.8487 11.9096 20.0898C11.9096 20.3309 12.0054 20.5621 12.1759 20.7326C12.3463 20.9031 12.5776 20.9989 12.8187 20.9989H19.1819ZM13.7277 9.18135V14.6356C13.7277 14.8767 13.6319 15.1079 13.4614 15.2784C13.291 15.4488 13.0597 15.5446 12.8187 15.5446C12.5776 15.5446 12.3463 15.4488 12.1759 15.2784C12.0054 15.1079 11.9096 14.8767 11.9096 14.6356V11.3758L2.55379 20.7334C2.46927 20.8179 2.36893 20.885 2.2585 20.9307C2.14807 20.9765 2.02971 21 1.91019 21C1.79066 21 1.6723 20.9765 1.56187 20.9307C1.45144 20.885 1.35111 20.8179 1.26659 20.7334C1.18207 20.6489 1.11503 20.5486 1.06928 20.4381C1.02354 20.3277 1 20.2093 1 20.0898C1 19.9703 1.02354 19.8519 1.06928 19.7415C1.11503 19.6311 1.18207 19.5307 1.26659 19.4462L10.6242 10.0904H7.36442C7.12333 10.0904 6.89211 9.99461 6.72163 9.82414C6.55115 9.65366 6.45538 9.42244 6.45538 9.18135C6.45538 8.94026 6.55115 8.70904 6.72163 8.53856C6.89211 8.36808 7.12333 8.27231 7.36442 8.27231H12.8187C12.9377 8.27183 13.0557 8.29484 13.1658 8.34001C13.276 8.38518 13.3761 8.45164 13.4606 8.53556C13.545 8.61949 13.6121 8.71925 13.6579 8.82913C13.7037 8.939 13.7275 9.05684 13.7277 9.17589" fill="#54B20E"/>
<path d="M19.1819 1V0.8V1ZM2.81923 1V0.8V1ZM1.00115 2.81808H0.801148H1.00115ZM2.81923 2.81808V2.61808H2.61923V2.81808H2.81923ZM19.1819 2.81808H19.3819V2.61808H19.1819V2.81808ZM19.1819 19.1808V19.3808H19.3819V19.1808H19.1819ZM11.9096 11.3758H12.1096V10.8929L11.7682 11.2344L11.9096 11.3758ZM2.55379 20.7334L2.69521 20.8748L2.69522 20.8748L2.55379 20.7334ZM1.91019 21V20.8V21ZM1 20.0898H1.2H1ZM1.26659 19.4462L1.12518 19.3048L1.12517 19.3048L1.26659 19.4462ZM10.6242 10.0904L10.7656 10.2318L11.1071 9.89039H10.6242V10.0904ZM12.8187 8.27231V8.47231L12.8195 8.47231L12.8187 8.27231ZM19.1819 21.1989C19.7171 21.1989 20.2305 20.9862 20.6089 20.6078L20.3261 20.3249C20.0226 20.6284 19.6111 20.7989 19.1819 20.7989V21.1989ZM20.6089 20.6078C20.9874 20.2293 21.2 19.716 21.2 19.1808H20.8C20.8 19.6099 20.6295 20.0215 20.3261 20.3249L20.6089 20.6078ZM21.2 19.1808V2.81808H20.8V19.1808H21.2ZM21.2 2.81808C21.2 2.28285 20.9874 1.76954 20.6089 1.39108L20.3261 1.67392C20.6295 1.97737 20.8 2.38894 20.8 2.81808H21.2ZM20.6089 1.39108C20.2305 1.01262 19.7171 0.8 19.1819 0.8V1.2C19.6111 1.2 20.0226 1.37048 20.3261 1.67392L20.6089 1.39108ZM19.1819 0.8H2.81923V1.2H19.1819V0.8ZM2.81923 0.8C2.284 0.8 1.77069 1.01262 1.39223 1.39108L1.67507 1.67392C1.97852 1.37048 2.39008 1.2 2.81923 1.2V0.8ZM1.39223 1.39108C1.01377 1.76954 0.801148 2.28285 0.801148 2.81808H1.20115C1.20115 2.38894 1.37162 1.97737 1.67507 1.67392L1.39223 1.39108ZM0.801148 2.81808V9.18135H1.20115V2.81808H0.801148ZM0.801148 9.18135C0.801148 9.47548 0.917993 9.75757 1.12598 9.96556L1.40882 9.68271C1.27585 9.54974 1.20115 9.3694 1.20115 9.18135H0.801148ZM1.12598 9.96556C1.33396 10.1735 1.61605 10.2904 1.91019 10.2904V9.89039C1.72214 9.89039 1.54179 9.81569 1.40882 9.68271L1.12598 9.96556ZM1.91019 10.2904C2.20432 10.2904 2.48641 10.1735 2.6944 9.96556L2.41155 9.68271C2.27858 9.81569 2.09824 9.89039 1.91019 9.89039V10.2904ZM2.6944 9.96556C2.90238 9.75757 3.01923 9.47548 3.01923 9.18135H2.61923C2.61923 9.3694 2.54452 9.54974 2.41155 9.68271L2.6944 9.96556ZM3.01923 9.18135V2.81808H2.61923V9.18135H3.01923ZM2.81923 3.01808H19.1819V2.61808H2.81923V3.01808ZM18.9819 2.81808V19.1808H19.3819V2.81808H18.9819ZM19.1819 18.9808H12.8187V19.3808H19.1819V18.9808ZM12.8187 18.9808C12.5245 18.9808 12.2424 19.0976 12.0344 19.3056L12.3173 19.5884C12.4503 19.4555 12.6306 19.3808 12.8187 19.3808V18.9808ZM12.0344 19.3056C11.8265 19.5136 11.7096 19.7957 11.7096 20.0898H12.1096C12.1096 19.9018 12.1843 19.7214 12.3173 19.5884L12.0344 19.3056ZM11.7096 20.0898C11.7096 20.3839 11.8265 20.666 12.0344 20.874L12.3173 20.5912C12.1843 20.4582 12.1096 20.2779 12.1096 20.0898H11.7096ZM12.0344 20.874C12.2424 21.082 12.5245 21.1989 12.8187 21.1989V20.7989C12.6306 20.7989 12.4503 20.7241 12.3173 20.5912L12.0344 20.874ZM12.8187 21.1989H19.1819V20.7989H12.8187V21.1989ZM13.5277 9.18135V14.6356H13.9277V9.18135H13.5277ZM13.5277 14.6356C13.5277 14.8236 13.453 15.004 13.32 15.1369L13.6029 15.4198C13.8108 15.2118 13.9277 14.9297 13.9277 14.6356H13.5277ZM13.32 15.1369C13.187 15.2699 13.0067 15.3446 12.8187 15.3446V15.7446C13.1128 15.7446 13.3949 15.6278 13.6029 15.4198L13.32 15.1369ZM12.8187 15.3446C12.6306 15.3446 12.4503 15.2699 12.3173 15.1369L12.0344 15.4198C12.2424 15.6278 12.5245 15.7446 12.8187 15.7446V15.3446ZM12.3173 15.1369C12.1843 15.004 12.1096 14.8236 12.1096 14.6356H11.7096C11.7096 14.9297 11.8265 15.2118 12.0344 15.4198L12.3173 15.1369ZM12.1096 14.6356V11.3758H11.7096V14.6356H12.1096ZM11.7682 11.2344L2.41235 20.592L2.69522 20.8748L12.051 11.5172L11.7682 11.2344ZM2.41237 20.592C2.34642 20.6579 2.26813 20.7103 2.18196 20.7459L2.33504 21.1155C2.46973 21.0597 2.59212 20.9779 2.69521 20.8748L2.41237 20.592ZM2.18196 20.7459C2.0958 20.7816 2.00345 20.8 1.91019 20.8V21.2C2.05598 21.2 2.20034 21.1713 2.33504 21.1155L2.18196 20.7459ZM1.91019 20.8C1.81692 20.8 1.72457 20.7816 1.63841 20.7459L1.48534 21.1155C1.62003 21.1713 1.7644 21.2 1.91019 21.2V20.8ZM1.63841 20.7459C1.55225 20.7103 1.47396 20.6579 1.40801 20.592L1.12517 20.8748C1.22826 20.9779 1.35064 21.0597 1.48534 21.1155L1.63841 20.7459ZM1.40801 20.592C1.34206 20.526 1.28975 20.4478 1.25406 20.3616L0.884508 20.5147C0.9403 20.6494 1.02208 20.7717 1.12517 20.8748L1.40801 20.592ZM1.25406 20.3616C1.21837 20.2754 1.2 20.1831 1.2 20.0898H0.8C0.8 20.2356 0.828716 20.38 0.884508 20.5147L1.25406 20.3616ZM1.2 20.0898C1.2 19.9965 1.21837 19.9042 1.25406 19.818L0.884508 19.665C0.828716 19.7997 0.8 19.944 0.8 20.0898H1.2ZM1.25406 19.818C1.28975 19.7319 1.34206 19.6536 1.40801 19.5876L1.12517 19.3048C1.02208 19.4079 0.9403 19.5303 0.884508 19.665L1.25406 19.818ZM1.408 19.5876L10.7656 10.2318L10.4828 9.94895L1.12518 19.3048L1.408 19.5876ZM10.6242 9.89039H7.36442V10.2904H10.6242V9.89039ZM7.36442 9.89039C7.17637 9.89039 6.99602 9.81569 6.86305 9.68271L6.58021 9.96556C6.7882 10.1735 7.07028 10.2904 7.36442 10.2904V9.89039ZM6.86305 9.68271C6.73008 9.54974 6.65538 9.3694 6.65538 9.18135H6.25538C6.25538 9.47548 6.37223 9.75757 6.58021 9.96556L6.86305 9.68271ZM6.65538 9.18135C6.65538 8.9933 6.73008 8.81295 6.86305 8.67998L6.58021 8.39714C6.37223 8.60512 6.25538 8.88721 6.25538 9.18135H6.65538ZM6.86305 8.67998C6.99602 8.54701 7.17637 8.47231 7.36442 8.47231V8.07231C7.07028 8.07231 6.7882 8.18916 6.58021 8.39714L6.86305 8.67998ZM7.36442 8.47231H12.8187V8.07231H7.36442V8.47231ZM12.8195 8.47231C12.9122 8.47194 13.0041 8.48986 13.0899 8.52505L13.2417 8.15497C13.1072 8.09981 12.9632 8.07173 12.8178 8.07231L12.8195 8.47231ZM13.0899 8.52505C13.1758 8.56025 13.2538 8.61202 13.3196 8.67741L13.6016 8.39372C13.4985 8.29125 13.3762 8.21012 13.2417 8.15497L13.0899 8.52505ZM13.3196 8.67741C13.3854 8.7428 13.4376 8.82052 13.4733 8.90613L13.8425 8.75213C13.7865 8.61798 13.7047 8.49619 13.6016 8.39372L13.3196 8.67741ZM13.4733 8.90613C13.509 8.99173 13.5275 9.08354 13.5277 9.17629L13.9277 9.1755C13.9274 9.03014 13.8984 8.88628 13.8425 8.75213L13.4733 8.90613Z" fill="#54B20E" mask="url(#path-1-outside-1_561_1559)"/>
</svg>
