<svg width="355" height="200" viewBox="0 0 355 200" fill="none" xmlns="http://www.w3.org/2000/svg">
<rect width="354.012" height="200" transform="translate(0.988281)" fill="#F0EFE9"/>
<g clip-path="url(#clip0_552_464)">
<path d="M159.757 104.122H149.228C149.693 106.506 151.365 107.993 153.563 107.993C155.081 107.993 156.474 107.342 157.496 106.197L159.107 108.086C157.744 109.758 155.762 110.718 153.347 110.718C149.042 110.718 146.224 107.528 146.224 102.883C146.224 98.207 149.135 95.0173 153.285 94.9863C158.147 94.9863 160.129 98.5166 159.757 104.122ZM157.156 101.675C157.063 99.167 155.545 97.6496 153.285 97.6496C151.086 97.6496 149.538 99.1979 149.197 101.675H157.156Z" fill="#1A1A28"/>
<path d="M170.286 90.1865C174.9 90.1865 177.563 92.7259 177.563 97.1543C177.563 101.768 174.9 104.432 170.286 104.432H166.074V110.594H162.978V90.2175H170.286V90.1865ZM166.043 101.366H170.162C172.98 101.366 174.59 100.034 174.59 97.2472C174.59 94.553 172.98 93.2833 170.162 93.2833H166.074V101.366H166.043Z" fill="#1A1A28"/>
<path d="M188.65 108.705C187.659 110.067 186.049 110.749 184.036 110.749C181.032 110.749 179.143 108.674 179.143 105.949C179.143 103.131 181.063 101.304 184.408 101.304H188.619V100.839C188.619 98.8881 187.504 97.7113 185.275 97.7113C183.943 97.7113 182.55 98.2377 181.156 99.2906L179.917 96.9681C181.868 95.6984 183.262 95.0171 185.925 95.0171C189.517 95.0171 191.53 97.061 191.561 100.467L191.592 110.625H188.619V108.705H188.65ZM188.619 105.144V103.719H184.841C182.859 103.719 181.961 104.307 181.961 105.794C181.961 107.187 182.983 108.085 184.655 108.085C186.823 108.085 188.464 106.816 188.619 105.144Z" fill="#1A1A28"/>
<path d="M198.529 98.176C199.458 96.0702 201.161 94.9863 203.36 94.9863V98.176C200.542 97.9902 198.777 99.8483 198.529 102.481V110.594H195.525V95.1102H198.529V98.176Z" fill="#1A1A28"/>
<path d="M213.517 108.705C212.526 110.067 210.916 110.749 208.903 110.749C205.899 110.749 204.01 108.674 204.01 105.949C204.01 103.131 205.93 101.304 209.274 101.304H213.517V100.839C213.517 98.8881 212.402 97.7113 210.172 97.7113C208.841 97.7113 207.447 98.2377 206.054 99.2906L204.815 96.9681C206.766 95.6984 208.159 95.0171 210.823 95.0171C214.415 95.0171 216.428 97.061 216.459 100.467L216.49 110.625H213.517V108.705ZM213.517 105.144V103.719H209.739C207.757 103.719 206.859 104.307 206.859 105.794C206.859 107.187 207.881 108.085 209.553 108.085C211.69 108.085 213.362 106.816 213.517 105.144Z" fill="#1A1A28"/>
<path d="M223.551 106.259V110.594H220.547V88.9785H223.551V102.016L229.713 95.0792H233.182L228.01 101.087L233.553 110.594H229.992L225.904 103.471L223.551 106.259Z" fill="#1A1A28"/>
<path d="M244.671 96.5037L243.556 98.9811C242.317 98.145 240.769 97.6185 239.53 97.6185C238.353 97.6185 237.486 98.0521 237.486 99.1669C237.486 102.016 244.918 100.468 244.887 106.104C244.887 109.293 242.348 110.718 239.53 110.718C237.486 110.718 235.318 109.975 233.925 108.55L235.009 106.166C236.216 107.373 238.167 108.086 239.685 108.086C240.954 108.086 241.976 107.59 241.976 106.413C241.976 103.224 234.637 105.02 234.668 99.4146C234.668 96.2559 237.145 94.9243 239.809 94.9243C241.543 94.9553 243.401 95.5127 244.671 96.5037Z" fill="#1A1A28"/>
<path d="M255.695 109.603C254.58 110.346 253.435 110.749 252.258 110.749C250.152 110.749 248.356 109.417 248.356 106.227V98.1758H246.374V95.6674H248.356V91.4248H251.329V95.6674H255.448V98.1758H251.329V105.608C251.329 107.218 251.886 107.714 252.815 107.714C253.435 107.714 254.085 107.466 254.921 107.033L255.695 109.603Z" fill="#1A1A28"/>
<path d="M267.401 96.5037L266.286 98.9811C265.048 98.145 263.499 97.6185 262.26 97.6185C261.084 97.6185 260.217 98.0521 260.217 99.1669C260.217 102.016 267.649 100.468 267.618 106.104C267.618 109.293 265.078 110.718 262.26 110.718C260.217 110.718 258.049 109.975 256.655 108.55L257.739 106.166C258.947 107.373 260.898 108.086 262.415 108.086C263.685 108.086 264.707 107.59 264.707 106.413C264.707 103.224 257.368 105.02 257.398 99.4146C257.398 96.2559 259.876 94.9243 262.539 94.9243C264.273 94.9553 266.131 95.5127 267.401 96.5037Z" fill="#1A1A28"/>
<path d="M97.7905 95.1104H116.836V114.156H97.7905V95.1104Z" fill="#4B4B4B"/>
<path d="M107.329 95.1104H116.867V104.648H107.329V95.1104Z" fill="#303030"/>
<path d="M116.836 95.1104H126.374V104.648H116.836V95.1104Z" fill="#737373"/>
<path d="M126.374 85.603H135.912V95.1411H126.374V85.603Z" fill="#737373"/>
<path d="M97.7905 76.0649H107.329V85.603H97.7905V76.0649Z" fill="#737373"/>
<path d="M116.836 76.0649H126.374V95.1101H116.836V76.0649Z" fill="#A5A5A5"/>
<path d="M107.329 114.187H116.867V123.725H107.329V114.187Z" fill="#838383"/>
<path d="M107.329 85.603H116.867V95.1411H107.329V85.603Z" fill="#737373"/>
<path d="M88.2524 114.187H97.7905V123.725H88.2524V114.187Z" fill="#4B4B4B"/>
<path d="M107.329 104.648H116.867V114.187H107.329V104.648Z" fill="#131313"/>
<path d="M116.836 104.648H126.374V114.187H116.836V104.648Z" fill="#7D7D7D"/>
</g>
<defs>
<clipPath id="clip0_552_464">
<rect width="179.613" height="48" fill="white" transform="translate(88.1875 76)"/>
</clipPath>
</defs>
</svg>
