<svg width="369" height="200" viewBox="0 0 369 200" fill="none" xmlns="http://www.w3.org/2000/svg">
<rect width="369" height="200" fill="#F8F7F1"/>
<path d="M118.16 102.38C118.16 101.74 118.067 101.14 117.88 100.58C117.707 100.007 117.44 99.5067 117.08 99.08C116.72 98.6533 116.26 98.32 115.7 98.08C115.153 97.8267 114.513 97.7 113.78 97.7C112.353 97.7 111.227 98.1067 110.4 98.92C109.587 99.7333 109.067 100.887 108.84 102.38H118.16ZM108.74 105.36C108.82 106.413 109.007 107.327 109.3 108.1C109.593 108.86 109.98 109.493 110.46 110C110.94 110.493 111.507 110.867 112.16 111.12C112.827 111.36 113.56 111.48 114.36 111.48C115.16 111.48 115.847 111.387 116.42 111.2C117.007 111.013 117.513 110.807 117.94 110.58C118.38 110.353 118.76 110.147 119.08 109.96C119.413 109.773 119.733 109.68 120.04 109.68C120.453 109.68 120.76 109.833 120.96 110.14L122.38 111.94C121.833 112.58 121.22 113.12 120.54 113.56C119.86 113.987 119.147 114.333 118.4 114.6C117.667 114.853 116.913 115.033 116.14 115.14C115.38 115.247 114.64 115.3 113.92 115.3C112.493 115.3 111.167 115.067 109.94 114.6C108.713 114.12 107.647 113.42 106.74 112.5C105.833 111.567 105.12 110.42 104.6 109.06C104.08 107.687 103.82 106.1 103.82 104.3C103.82 102.9 104.047 101.587 104.5 100.36C104.953 99.12 105.6 98.0467 106.44 97.14C107.293 96.22 108.327 95.4933 109.54 94.96C110.767 94.4267 112.147 94.16 113.68 94.16C114.973 94.16 116.167 94.3667 117.26 94.78C118.353 95.1933 119.293 95.8 120.08 96.6C120.867 97.3867 121.48 98.36 121.92 99.52C122.373 100.667 122.6 101.98 122.6 103.46C122.6 104.207 122.52 104.713 122.36 104.98C122.2 105.233 121.893 105.36 121.44 105.36H108.74ZM126.147 100.86H136.507V104.98H126.147V100.86ZM157.409 91.34C157.249 91.62 157.076 91.8267 156.889 91.96C156.716 92.08 156.496 92.14 156.229 92.14C155.949 92.14 155.642 92.04 155.309 91.84C154.989 91.6267 154.602 91.3933 154.149 91.14C153.696 90.8867 153.162 90.66 152.549 90.46C151.949 90.2467 151.236 90.14 150.409 90.14C149.662 90.14 149.009 90.2333 148.449 90.42C147.889 90.5933 147.416 90.84 147.029 91.16C146.656 91.48 146.376 91.8667 146.189 92.32C146.002 92.76 145.909 93.2467 145.909 93.78C145.909 94.46 146.096 95.0267 146.469 95.48C146.856 95.9333 147.362 96.32 147.989 96.64C148.616 96.96 149.329 97.2467 150.129 97.5C150.929 97.7533 151.749 98.0267 152.589 98.32C153.429 98.6 154.249 98.9333 155.049 99.32C155.849 99.6933 156.562 100.173 157.189 100.76C157.816 101.333 158.316 102.04 158.689 102.88C159.076 103.72 159.269 104.74 159.269 105.94C159.269 107.247 159.042 108.473 158.589 109.62C158.149 110.753 157.496 111.747 156.629 112.6C155.776 113.44 154.729 114.107 153.489 114.6C152.249 115.08 150.829 115.32 149.229 115.32C148.309 115.32 147.402 115.227 146.509 115.04C145.616 114.867 144.756 114.613 143.929 114.28C143.116 113.947 142.349 113.547 141.629 113.08C140.909 112.613 140.269 112.093 139.709 111.52L141.289 108.94C141.422 108.753 141.596 108.6 141.809 108.48C142.022 108.347 142.249 108.28 142.489 108.28C142.822 108.28 143.182 108.42 143.569 108.7C143.956 108.967 144.416 109.267 144.949 109.6C145.482 109.933 146.102 110.24 146.809 110.52C147.529 110.787 148.389 110.92 149.389 110.92C150.922 110.92 152.109 110.56 152.949 109.84C153.789 109.107 154.209 108.06 154.209 106.7C154.209 105.94 154.016 105.32 153.629 104.84C153.256 104.36 152.756 103.96 152.129 103.64C151.502 103.307 150.789 103.027 149.989 102.8C149.189 102.573 148.376 102.327 147.549 102.06C146.722 101.793 145.909 101.473 145.109 101.1C144.309 100.727 143.596 100.24 142.969 99.64C142.342 99.04 141.836 98.2933 141.449 97.4C141.076 96.4933 140.889 95.38 140.889 94.06C140.889 93.0067 141.096 91.98 141.509 90.98C141.936 89.98 142.549 89.0933 143.349 88.32C144.149 87.5467 145.136 86.9267 146.309 86.46C147.482 85.9933 148.829 85.76 150.349 85.76C152.056 85.76 153.629 86.0267 155.069 86.56C156.509 87.0933 157.736 87.84 158.749 88.8L157.409 91.34ZM173.749 106.24C172.322 106.307 171.122 106.433 170.149 106.62C169.175 106.793 168.395 107.02 167.809 107.3C167.222 107.58 166.802 107.907 166.549 108.28C166.295 108.653 166.169 109.06 166.169 109.5C166.169 110.367 166.422 110.987 166.929 111.36C167.449 111.733 168.122 111.92 168.949 111.92C169.962 111.92 170.835 111.74 171.569 111.38C172.315 111.007 173.042 110.447 173.749 109.7V106.24ZM162.429 97.34C164.789 95.18 167.629 94.1 170.949 94.1C172.149 94.1 173.222 94.3 174.169 94.7C175.115 95.0867 175.915 95.6333 176.569 96.34C177.222 97.0333 177.715 97.8667 178.049 98.84C178.395 99.8133 178.569 100.88 178.569 102.04V115H176.329C175.862 115 175.502 114.933 175.249 114.8C174.995 114.653 174.795 114.367 174.649 113.94L174.209 112.46C173.689 112.927 173.182 113.34 172.689 113.7C172.195 114.047 171.682 114.34 171.149 114.58C170.615 114.82 170.042 115 169.429 115.12C168.829 115.253 168.162 115.32 167.429 115.32C166.562 115.32 165.762 115.207 165.029 114.98C164.295 114.74 163.662 114.387 163.129 113.92C162.595 113.453 162.182 112.873 161.889 112.18C161.595 111.487 161.449 110.68 161.449 109.76C161.449 109.24 161.535 108.727 161.709 108.22C161.882 107.7 162.162 107.207 162.549 106.74C162.949 106.273 163.462 105.833 164.089 105.42C164.715 105.007 165.482 104.647 166.389 104.34C167.309 104.033 168.375 103.787 169.589 103.6C170.802 103.4 172.189 103.28 173.749 103.24V102.04C173.749 100.667 173.455 99.6533 172.869 99C172.282 98.3333 171.435 98 170.329 98C169.529 98 168.862 98.0933 168.329 98.28C167.809 98.4667 167.349 98.68 166.949 98.92C166.549 99.1467 166.182 99.3533 165.849 99.54C165.529 99.7267 165.169 99.82 164.769 99.82C164.422 99.82 164.129 99.7333 163.889 99.56C163.649 99.3733 163.455 99.16 163.309 98.92L162.429 97.34ZM196.441 102.38C196.441 101.74 196.348 101.14 196.161 100.58C195.988 100.007 195.721 99.5067 195.361 99.08C195.001 98.6533 194.541 98.32 193.981 98.08C193.435 97.8267 192.795 97.7 192.061 97.7C190.635 97.7 189.508 98.1067 188.681 98.92C187.868 99.7333 187.348 100.887 187.121 102.38H196.441ZM187.021 105.36C187.101 106.413 187.288 107.327 187.581 108.1C187.875 108.86 188.261 109.493 188.741 110C189.221 110.493 189.788 110.867 190.441 111.12C191.108 111.36 191.841 111.48 192.641 111.48C193.441 111.48 194.128 111.387 194.701 111.2C195.288 111.013 195.795 110.807 196.221 110.58C196.661 110.353 197.041 110.147 197.361 109.96C197.695 109.773 198.015 109.68 198.321 109.68C198.735 109.68 199.041 109.833 199.241 110.14L200.661 111.94C200.115 112.58 199.501 113.12 198.821 113.56C198.141 113.987 197.428 114.333 196.681 114.6C195.948 114.853 195.195 115.033 194.421 115.14C193.661 115.247 192.921 115.3 192.201 115.3C190.775 115.3 189.448 115.067 188.221 114.6C186.995 114.12 185.928 113.42 185.021 112.5C184.115 111.567 183.401 110.42 182.881 109.06C182.361 107.687 182.101 106.1 182.101 104.3C182.101 102.9 182.328 101.587 182.781 100.36C183.235 99.12 183.881 98.0467 184.721 97.14C185.575 96.22 186.608 95.4933 187.821 94.96C189.048 94.4267 190.428 94.16 191.961 94.16C193.255 94.16 194.448 94.3667 195.541 94.78C196.635 95.1933 197.575 95.8 198.361 96.6C199.148 97.3867 199.761 98.36 200.201 99.52C200.655 100.667 200.881 101.98 200.881 103.46C200.881 104.207 200.801 104.713 200.641 104.98C200.481 105.233 200.175 105.36 199.721 105.36H187.021ZM209.708 94.48V115H204.748V94.48H209.708ZM210.388 88.5C210.388 88.9267 210.302 89.3267 210.128 89.7C209.955 90.0733 209.722 90.4 209.428 90.68C209.148 90.96 208.815 91.1867 208.428 91.36C208.042 91.52 207.628 91.6 207.188 91.6C206.762 91.6 206.355 91.52 205.968 91.36C205.595 91.1867 205.268 90.96 204.988 90.68C204.708 90.4 204.482 90.0733 204.308 89.7C204.148 89.3267 204.068 88.9267 204.068 88.5C204.068 88.06 204.148 87.6467 204.308 87.26C204.482 86.8733 204.708 86.54 204.988 86.26C205.268 85.98 205.595 85.76 205.968 85.6C206.355 85.4267 206.762 85.34 207.188 85.34C207.628 85.34 208.042 85.4267 208.428 85.6C208.815 85.76 209.148 85.98 209.428 86.26C209.722 86.54 209.955 86.8733 210.128 87.26C210.302 87.6467 210.388 88.06 210.388 88.5ZM214.745 115V94.48H217.765C218.405 94.48 218.825 94.78 219.025 95.38L219.345 96.9C219.705 96.5 220.078 96.1333 220.465 95.8C220.865 95.4667 221.285 95.18 221.725 94.94C222.178 94.7 222.658 94.5133 223.165 94.38C223.685 94.2333 224.251 94.16 224.865 94.16C226.158 94.16 227.218 94.5133 228.045 95.22C228.885 95.9133 229.511 96.84 229.925 98C230.245 97.32 230.645 96.74 231.125 96.26C231.605 95.7667 232.131 95.3667 232.705 95.06C233.278 94.7533 233.885 94.5267 234.525 94.38C235.178 94.2333 235.831 94.16 236.485 94.16C237.618 94.16 238.625 94.3333 239.505 94.68C240.385 95.0267 241.125 95.5333 241.725 96.2C242.325 96.8667 242.778 97.68 243.085 98.64C243.405 99.6 243.565 100.7 243.565 101.94V115H238.625V101.94C238.625 100.633 238.338 99.6533 237.765 99C237.191 98.3333 236.351 98 235.245 98C234.738 98 234.265 98.0867 233.825 98.26C233.398 98.4333 233.018 98.6867 232.685 99.02C232.365 99.34 232.111 99.7467 231.925 100.24C231.738 100.733 231.645 101.3 231.645 101.94V115H226.685V101.94C226.685 100.567 226.405 99.5667 225.845 98.94C225.298 98.3133 224.491 98 223.425 98C222.705 98 222.031 98.18 221.405 98.54C220.791 98.8867 220.218 99.3667 219.685 99.98V115H214.745ZM259.1 106.24C257.674 106.307 256.474 106.433 255.5 106.62C254.527 106.793 253.747 107.02 253.16 107.3C252.574 107.58 252.154 107.907 251.9 108.28C251.647 108.653 251.52 109.06 251.52 109.5C251.52 110.367 251.774 110.987 252.28 111.36C252.8 111.733 253.474 111.92 254.3 111.92C255.314 111.92 256.187 111.74 256.92 111.38C257.667 111.007 258.394 110.447 259.1 109.7V106.24ZM247.78 97.34C250.14 95.18 252.98 94.1 256.3 94.1C257.5 94.1 258.574 94.3 259.52 94.7C260.467 95.0867 261.267 95.6333 261.92 96.34C262.574 97.0333 263.067 97.8667 263.4 98.84C263.747 99.8133 263.92 100.88 263.92 102.04V115H261.68C261.214 115 260.854 114.933 260.6 114.8C260.347 114.653 260.147 114.367 260 113.94L259.56 112.46C259.04 112.927 258.534 113.34 258.04 113.7C257.547 114.047 257.034 114.34 256.5 114.58C255.967 114.82 255.394 115 254.78 115.12C254.18 115.253 253.514 115.32 252.78 115.32C251.914 115.32 251.114 115.207 250.38 114.98C249.647 114.74 249.014 114.387 248.48 113.92C247.947 113.453 247.534 112.873 247.24 112.18C246.947 111.487 246.8 110.68 246.8 109.76C246.8 109.24 246.887 108.727 247.06 108.22C247.234 107.7 247.514 107.207 247.9 106.74C248.3 106.273 248.814 105.833 249.44 105.42C250.067 105.007 250.834 104.647 251.74 104.34C252.66 104.033 253.727 103.787 254.94 103.6C256.154 103.4 257.54 103.28 259.1 103.24V102.04C259.1 100.667 258.807 99.6533 258.22 99C257.634 98.3333 256.787 98 255.68 98C254.88 98 254.214 98.0933 253.68 98.28C253.16 98.4667 252.7 98.68 252.3 98.92C251.9 99.1467 251.534 99.3533 251.2 99.54C250.88 99.7267 250.52 99.82 250.12 99.82C249.774 99.82 249.48 99.7333 249.24 99.56C249 99.3733 248.807 99.16 248.66 98.92L247.78 97.34Z" fill="#1A1A28"/>
</svg>
