<svg width="611" height="288" viewBox="0 0 611 288" fill="none" xmlns="http://www.w3.org/2000/svg">
<rect width="611" height="288" fill="#F0EFE9"/>
<path d="M239.16 146.38C239.16 145.74 239.067 145.14 238.88 144.58C238.707 144.007 238.44 143.507 238.08 143.08C237.72 142.653 237.26 142.32 236.7 142.08C236.153 141.827 235.513 141.7 234.78 141.7C233.353 141.7 232.227 142.107 231.4 142.92C230.587 143.733 230.067 144.887 229.84 146.38H239.16ZM229.74 149.36C229.82 150.413 230.007 151.327 230.3 152.1C230.593 152.86 230.98 153.493 231.46 154C231.94 154.493 232.507 154.867 233.16 155.12C233.827 155.36 234.56 155.48 235.36 155.48C236.16 155.48 236.847 155.387 237.42 155.2C238.007 155.013 238.513 154.807 238.94 154.58C239.38 154.353 239.76 154.147 240.08 153.96C240.413 153.773 240.733 153.68 241.04 153.68C241.453 153.68 241.76 153.833 241.96 154.14L243.38 155.94C242.833 156.58 242.22 157.12 241.54 157.56C240.86 157.987 240.147 158.333 239.4 158.6C238.667 158.853 237.913 159.033 237.14 159.14C236.38 159.247 235.64 159.3 234.92 159.3C233.493 159.3 232.167 159.067 230.94 158.6C229.713 158.12 228.647 157.42 227.74 156.5C226.833 155.567 226.12 154.42 225.6 153.06C225.08 151.687 224.82 150.1 224.82 148.3C224.82 146.9 225.047 145.587 225.5 144.36C225.953 143.12 226.6 142.047 227.44 141.14C228.293 140.22 229.327 139.493 230.54 138.96C231.767 138.427 233.147 138.16 234.68 138.16C235.973 138.16 237.167 138.367 238.26 138.78C239.353 139.193 240.293 139.8 241.08 140.6C241.867 141.387 242.48 142.36 242.92 143.52C243.373 144.667 243.6 145.98 243.6 147.46C243.6 148.207 243.52 148.713 243.36 148.98C243.2 149.233 242.893 149.36 242.44 149.36H229.74ZM247.147 144.86H257.507V148.98H247.147V144.86ZM278.409 135.34C278.249 135.62 278.076 135.827 277.889 135.96C277.716 136.08 277.496 136.14 277.229 136.14C276.949 136.14 276.642 136.04 276.309 135.84C275.989 135.627 275.602 135.393 275.149 135.14C274.696 134.887 274.162 134.66 273.549 134.46C272.949 134.247 272.236 134.14 271.409 134.14C270.662 134.14 270.009 134.233 269.449 134.42C268.889 134.593 268.416 134.84 268.029 135.16C267.656 135.48 267.376 135.867 267.189 136.32C267.002 136.76 266.909 137.247 266.909 137.78C266.909 138.46 267.096 139.027 267.469 139.48C267.856 139.933 268.362 140.32 268.989 140.64C269.616 140.96 270.329 141.247 271.129 141.5C271.929 141.753 272.749 142.027 273.589 142.32C274.429 142.6 275.249 142.933 276.049 143.32C276.849 143.693 277.562 144.173 278.189 144.76C278.816 145.333 279.316 146.04 279.689 146.88C280.076 147.72 280.269 148.74 280.269 149.94C280.269 151.247 280.042 152.473 279.589 153.62C279.149 154.753 278.496 155.747 277.629 156.6C276.776 157.44 275.729 158.107 274.489 158.6C273.249 159.08 271.829 159.32 270.229 159.32C269.309 159.32 268.402 159.227 267.509 159.04C266.616 158.867 265.756 158.613 264.929 158.28C264.116 157.947 263.349 157.547 262.629 157.08C261.909 156.613 261.269 156.093 260.709 155.52L262.289 152.94C262.422 152.753 262.596 152.6 262.809 152.48C263.022 152.347 263.249 152.28 263.489 152.28C263.822 152.28 264.182 152.42 264.569 152.7C264.956 152.967 265.416 153.267 265.949 153.6C266.482 153.933 267.102 154.24 267.809 154.52C268.529 154.787 269.389 154.92 270.389 154.92C271.922 154.92 273.109 154.56 273.949 153.84C274.789 153.107 275.209 152.06 275.209 150.7C275.209 149.94 275.016 149.32 274.629 148.84C274.256 148.36 273.756 147.96 273.129 147.64C272.502 147.307 271.789 147.027 270.989 146.8C270.189 146.573 269.376 146.327 268.549 146.06C267.722 145.793 266.909 145.473 266.109 145.1C265.309 144.727 264.596 144.24 263.969 143.64C263.342 143.04 262.836 142.293 262.449 141.4C262.076 140.493 261.889 139.38 261.889 138.06C261.889 137.007 262.096 135.98 262.509 134.98C262.936 133.98 263.549 133.093 264.349 132.32C265.149 131.547 266.136 130.927 267.309 130.46C268.482 129.993 269.829 129.76 271.349 129.76C273.056 129.76 274.629 130.027 276.069 130.56C277.509 131.093 278.736 131.84 279.749 132.8L278.409 135.34ZM294.749 150.24C293.322 150.307 292.122 150.433 291.149 150.62C290.175 150.793 289.395 151.02 288.809 151.3C288.222 151.58 287.802 151.907 287.549 152.28C287.295 152.653 287.169 153.06 287.169 153.5C287.169 154.367 287.422 154.987 287.929 155.36C288.449 155.733 289.122 155.92 289.949 155.92C290.962 155.92 291.835 155.74 292.569 155.38C293.315 155.007 294.042 154.447 294.749 153.7V150.24ZM283.429 141.34C285.789 139.18 288.629 138.1 291.949 138.1C293.149 138.1 294.222 138.3 295.169 138.7C296.115 139.087 296.915 139.633 297.569 140.34C298.222 141.033 298.715 141.867 299.049 142.84C299.395 143.813 299.569 144.88 299.569 146.04V159H297.329C296.862 159 296.502 158.933 296.249 158.8C295.995 158.653 295.795 158.367 295.649 157.94L295.209 156.46C294.689 156.927 294.182 157.34 293.689 157.7C293.195 158.047 292.682 158.34 292.149 158.58C291.615 158.82 291.042 159 290.429 159.12C289.829 159.253 289.162 159.32 288.429 159.32C287.562 159.32 286.762 159.207 286.029 158.98C285.295 158.74 284.662 158.387 284.129 157.92C283.595 157.453 283.182 156.873 282.889 156.18C282.595 155.487 282.449 154.68 282.449 153.76C282.449 153.24 282.535 152.727 282.709 152.22C282.882 151.7 283.162 151.207 283.549 150.74C283.949 150.273 284.462 149.833 285.089 149.42C285.715 149.007 286.482 148.647 287.389 148.34C288.309 148.033 289.375 147.787 290.589 147.6C291.802 147.4 293.189 147.28 294.749 147.24V146.04C294.749 144.667 294.455 143.653 293.869 143C293.282 142.333 292.435 142 291.329 142C290.529 142 289.862 142.093 289.329 142.28C288.809 142.467 288.349 142.68 287.949 142.92C287.549 143.147 287.182 143.353 286.849 143.54C286.529 143.727 286.169 143.82 285.769 143.82C285.422 143.82 285.129 143.733 284.889 143.56C284.649 143.373 284.455 143.16 284.309 142.92L283.429 141.34ZM317.441 146.38C317.441 145.74 317.348 145.14 317.161 144.58C316.988 144.007 316.721 143.507 316.361 143.08C316.001 142.653 315.541 142.32 314.981 142.08C314.435 141.827 313.795 141.7 313.061 141.7C311.635 141.7 310.508 142.107 309.681 142.92C308.868 143.733 308.348 144.887 308.121 146.38H317.441ZM308.021 149.36C308.101 150.413 308.288 151.327 308.581 152.1C308.875 152.86 309.261 153.493 309.741 154C310.221 154.493 310.788 154.867 311.441 155.12C312.108 155.36 312.841 155.48 313.641 155.48C314.441 155.48 315.128 155.387 315.701 155.2C316.288 155.013 316.795 154.807 317.221 154.58C317.661 154.353 318.041 154.147 318.361 153.96C318.695 153.773 319.015 153.68 319.321 153.68C319.735 153.68 320.041 153.833 320.241 154.14L321.661 155.94C321.115 156.58 320.501 157.12 319.821 157.56C319.141 157.987 318.428 158.333 317.681 158.6C316.948 158.853 316.195 159.033 315.421 159.14C314.661 159.247 313.921 159.3 313.201 159.3C311.775 159.3 310.448 159.067 309.221 158.6C307.995 158.12 306.928 157.42 306.021 156.5C305.115 155.567 304.401 154.42 303.881 153.06C303.361 151.687 303.101 150.1 303.101 148.3C303.101 146.9 303.328 145.587 303.781 144.36C304.235 143.12 304.881 142.047 305.721 141.14C306.575 140.22 307.608 139.493 308.821 138.96C310.048 138.427 311.428 138.16 312.961 138.16C314.255 138.16 315.448 138.367 316.541 138.78C317.635 139.193 318.575 139.8 319.361 140.6C320.148 141.387 320.761 142.36 321.201 143.52C321.655 144.667 321.881 145.98 321.881 147.46C321.881 148.207 321.801 148.713 321.641 148.98C321.481 149.233 321.175 149.36 320.721 149.36H308.021ZM330.708 138.48V159H325.748V138.48H330.708ZM331.388 132.5C331.388 132.927 331.302 133.327 331.128 133.7C330.955 134.073 330.722 134.4 330.428 134.68C330.148 134.96 329.815 135.187 329.428 135.36C329.042 135.52 328.628 135.6 328.188 135.6C327.762 135.6 327.355 135.52 326.968 135.36C326.595 135.187 326.268 134.96 325.988 134.68C325.708 134.4 325.482 134.073 325.308 133.7C325.148 133.327 325.068 132.927 325.068 132.5C325.068 132.06 325.148 131.647 325.308 131.26C325.482 130.873 325.708 130.54 325.988 130.26C326.268 129.98 326.595 129.76 326.968 129.6C327.355 129.427 327.762 129.34 328.188 129.34C328.628 129.34 329.042 129.427 329.428 129.6C329.815 129.76 330.148 129.98 330.428 130.26C330.722 130.54 330.955 130.873 331.128 131.26C331.302 131.647 331.388 132.06 331.388 132.5ZM335.745 159V138.48H338.765C339.405 138.48 339.825 138.78 340.025 139.38L340.345 140.9C340.705 140.5 341.078 140.133 341.465 139.8C341.865 139.467 342.285 139.18 342.725 138.94C343.178 138.7 343.658 138.513 344.165 138.38C344.685 138.233 345.251 138.16 345.865 138.16C347.158 138.16 348.218 138.513 349.045 139.22C349.885 139.913 350.511 140.84 350.925 142C351.245 141.32 351.645 140.74 352.125 140.26C352.605 139.767 353.131 139.367 353.705 139.06C354.278 138.753 354.885 138.527 355.525 138.38C356.178 138.233 356.831 138.16 357.485 138.16C358.618 138.16 359.625 138.333 360.505 138.68C361.385 139.027 362.125 139.533 362.725 140.2C363.325 140.867 363.778 141.68 364.085 142.64C364.405 143.6 364.565 144.7 364.565 145.94V159H359.625V145.94C359.625 144.633 359.338 143.653 358.765 143C358.191 142.333 357.351 142 356.245 142C355.738 142 355.265 142.087 354.825 142.26C354.398 142.433 354.018 142.687 353.685 143.02C353.365 143.34 353.111 143.747 352.925 144.24C352.738 144.733 352.645 145.3 352.645 145.94V159H347.685V145.94C347.685 144.567 347.405 143.567 346.845 142.94C346.298 142.313 345.491 142 344.425 142C343.705 142 343.031 142.18 342.405 142.54C341.791 142.887 341.218 143.367 340.685 143.98V159H335.745ZM380.1 150.24C378.674 150.307 377.474 150.433 376.5 150.62C375.527 150.793 374.747 151.02 374.16 151.3C373.574 151.58 373.154 151.907 372.9 152.28C372.647 152.653 372.52 153.06 372.52 153.5C372.52 154.367 372.774 154.987 373.28 155.36C373.8 155.733 374.474 155.92 375.3 155.92C376.314 155.92 377.187 155.74 377.92 155.38C378.667 155.007 379.394 154.447 380.1 153.7V150.24ZM368.78 141.34C371.14 139.18 373.98 138.1 377.3 138.1C378.5 138.1 379.574 138.3 380.52 138.7C381.467 139.087 382.267 139.633 382.92 140.34C383.574 141.033 384.067 141.867 384.4 142.84C384.747 143.813 384.92 144.88 384.92 146.04V159H382.68C382.214 159 381.854 158.933 381.6 158.8C381.347 158.653 381.147 158.367 381 157.94L380.56 156.46C380.04 156.927 379.534 157.34 379.04 157.7C378.547 158.047 378.034 158.34 377.5 158.58C376.967 158.82 376.394 159 375.78 159.12C375.18 159.253 374.514 159.32 373.78 159.32C372.914 159.32 372.114 159.207 371.38 158.98C370.647 158.74 370.014 158.387 369.48 157.92C368.947 157.453 368.534 156.873 368.24 156.18C367.947 155.487 367.8 154.68 367.8 153.76C367.8 153.24 367.887 152.727 368.06 152.22C368.234 151.7 368.514 151.207 368.9 150.74C369.3 150.273 369.814 149.833 370.44 149.42C371.067 149.007 371.834 148.647 372.74 148.34C373.66 148.033 374.727 147.787 375.94 147.6C377.154 147.4 378.54 147.28 380.1 147.24V146.04C380.1 144.667 379.807 143.653 379.22 143C378.634 142.333 377.787 142 376.68 142C375.88 142 375.214 142.093 374.68 142.28C374.16 142.467 373.7 142.68 373.3 142.92C372.9 143.147 372.534 143.353 372.2 143.54C371.88 143.727 371.52 143.82 371.12 143.82C370.774 143.82 370.48 143.733 370.24 143.56C370 143.373 369.807 143.16 369.66 142.92L368.78 141.34Z" fill="#1A1A28"/>
</svg>
