<svg width="749" height="216" viewBox="0 0 749 216" fill="none" xmlns="http://www.w3.org/2000/svg">
<rect width="748.024" height="216" transform="translate(0.976562)" fill="#F0EFE9"/>
<g clip-path="url(#clip0_552_1339)">
<path fill-rule="evenodd" clip-rule="evenodd" d="M331.477 104.06C330.867 100.484 329.647 98.6635 326.057 98.6635C323.279 98.6635 321.721 100.552 321.314 104.06H331.477ZM342.25 109.253C342.25 110.265 342.25 111.007 342.182 111.614H321.314C321.721 115.526 324.024 117.28 327.344 117.28C330.461 117.28 333.035 116.606 336.558 114.784L341.234 122.541C336.83 125.104 332.291 126.588 326.734 126.588C316.029 126.588 310.134 119.033 310.134 108.174C310.134 95.9657 317.045 89.6924 326.395 89.6924C336.152 89.6924 342.25 96.1 342.25 109.253Z" fill="#2F2E41"/>
<path fill-rule="evenodd" clip-rule="evenodd" d="M399.437 114.649C399.437 122.811 393.814 126.588 384.735 126.588C379.518 126.588 374.435 125.441 369.897 123.687L372.742 114.514C377.01 116.403 381.888 117.617 385.006 117.617C387.377 117.617 388.258 117.078 388.258 115.998C388.258 114.852 387.716 114.379 385.412 113.772C374.435 110.872 370.641 108.646 370.641 101.294C370.641 94.0092 375.453 89.6919 385.141 89.6919C390.493 89.6919 394.085 90.5695 398.827 92.2554L396.117 101.631C391.442 99.6071 387.918 98.663 384.802 98.663C382.432 98.663 381.821 99.1354 381.821 100.215C381.821 101.294 382.227 101.766 385.344 102.643C395.371 105.342 399.437 107.635 399.437 114.649Z" fill="#2F2E41"/>
<path fill-rule="evenodd" clip-rule="evenodd" d="M418.75 125.846H406.555V90.4347H418.75V125.846ZM419.766 81.8681C419.766 85.5786 416.852 87.8712 412.653 87.8712C408.654 87.8712 405.674 85.5786 405.674 81.8681C405.674 78.4284 408.654 76 412.653 76C416.852 76 419.766 78.4284 419.766 81.8681Z" fill="#2F2E41"/>
<path fill-rule="evenodd" clip-rule="evenodd" d="M439.212 125.846H427.017V81.5309L439.212 76.6748V125.846Z" fill="#2F2E41"/>
<path fill-rule="evenodd" clip-rule="evenodd" d="M481.016 90.4341L468.685 125.845H456.692L444.361 90.4341H457.302L460.487 103.452C461.231 106.42 462.249 110.67 462.655 114.042C463.129 110.67 464.145 106.42 464.891 103.452L468.142 90.4341H481.016Z" fill="#2F2E41"/>
<path fill-rule="evenodd" clip-rule="evenodd" d="M503.107 116.268V111.412C501.751 110.804 500.193 110.399 497.89 110.399C495.384 110.399 494.096 111.748 494.096 114.177C494.096 116.403 495.247 118.022 497.89 118.022C499.922 118.022 501.956 117.212 503.107 116.268ZM514.625 125.846H503.107V123.485C500.803 125.239 497.687 126.588 494.435 126.588C487.524 126.588 482.917 122.338 482.917 114.379C482.917 106.757 488.201 102.845 495.722 102.845C498.974 102.845 501.142 103.452 503.107 104.329V102.575C503.107 99.4727 501.413 98.3929 498.093 98.3929C494.435 98.3929 491.657 99.0675 488.201 100.956L485.017 92.93C489.353 90.8389 494.164 89.6919 500.329 89.6919C510.289 89.6919 514.625 94.6166 514.625 102.845V125.846Z" fill="#2F2E41"/>
<path fill-rule="evenodd" clip-rule="evenodd" d="M362.414 109.174C362.414 112.101 360.03 114.474 357.09 114.474C354.15 114.474 351.767 112.101 351.767 109.174C351.767 106.247 354.15 103.875 357.09 103.875C360.03 103.875 362.414 106.247 362.414 109.174Z" fill="#2F2E41"/>
<path fill-rule="evenodd" clip-rule="evenodd" d="M266.316 130.938C254.262 130.938 244.454 121.175 244.454 109.175C244.454 97.1743 254.262 87.4103 266.316 87.4103C278.371 87.4103 288.178 97.1743 288.178 109.175C288.178 121.175 278.371 130.938 266.316 130.938ZM266.316 78.3486C249.243 78.3486 235.352 92.1773 235.352 109.175C235.352 126.171 249.243 140 266.316 140C283.39 140 297.281 126.171 297.281 109.175C297.281 92.1773 283.39 78.3486 266.316 78.3486Z" fill="#2F2E41"/>
<path fill-rule="evenodd" clip-rule="evenodd" d="M276.721 108.446L280.42 104.764L266.316 90.7231L252.213 104.764L255.911 108.446L263.701 100.691V104.552L252.213 115.989L255.911 119.671L263.701 111.917V125.74H268.932V111.917L276.721 119.671L280.42 115.989L268.932 104.552V100.691L276.721 108.446Z" fill="#2F2E41"/>
</g>
<defs>
<clipPath id="clip0_552_1339">
<rect width="279.273" height="64" fill="white" transform="translate(235.352 76)"/>
</clipPath>
</defs>
</svg>
