<svg width="355" height="200" viewBox="0 0 355 200" fill="none" xmlns="http://www.w3.org/2000/svg">
<rect width="354.012" height="200" transform="translate(0.976562)" fill="#F0EFE9"/>
<path fill-rule="evenodd" clip-rule="evenodd" d="M99.8366 120.056C99.8588 120.03 100.002 119.874 100.002 119.874C100.002 119.874 100.029 119.842 100.024 119.804C100.02 119.775 100.002 119.746 99.9533 119.711C99.9356 119.694 99.8905 119.699 99.8905 119.699L95.3023 119.708C95.2676 119.708 95.2344 119.741 95.2344 119.741C95.2344 119.741 95.0845 119.908 95.0667 119.932C95.0446 119.953 95.049 119.973 95.049 119.984C95.0564 120.013 95.0734 120.041 95.114 120.075C95.1229 120.082 95.148 120.097 95.1731 120.094C95.7344 120.1 96.1244 120.245 96.3445 120.513C96.5262 120.759 96.634 121.18 96.6444 121.774C96.6518 122.593 96.6569 123.226 96.6569 123.682C96.6569 123.968 96.6532 124.179 96.6525 124.317C96.651 124.414 96.6142 124.507 96.5491 124.579C96.2197 124.95 95.6997 125.283 95.0003 125.569C94.21 125.89 93.4418 126.054 92.718 126.054C90.825 126.054 89.2059 125.476 87.9097 124.339C86.5315 123.146 85.8305 121.583 85.8305 119.677C85.8305 117.959 86.3786 116.435 87.4643 115.149C88.6564 113.724 90.2164 113.005 92.1086 113.005C93.4093 113.005 94.4936 113.24 95.3275 113.702C96.4619 114.317 97.4812 115.352 98.016 116.976C98.03 117.017 98.1031 117.057 98.1489 117.046L98.338 116.982C98.3749 116.976 98.3838 116.949 98.3853 116.919C98.4296 116.596 97.9643 114.978 97.8461 114.271C97.8312 114.195 97.7905 114.126 97.7309 114.076C95.8991 112.782 93.8997 112.148 91.7622 112.148C89.4467 112.148 87.4961 112.904 85.9738 114.399C84.5062 115.842 83.7603 117.617 83.7603 119.677C83.7603 121.935 84.6096 123.734 86.2863 125.022C87.8129 126.22 89.8027 126.828 92.1973 126.828C94.6487 126.828 96.7116 126.196 98.3454 124.926C98.4754 124.837 98.4709 124.64 98.4709 124.64L98.4983 121.019C98.4983 120.413 98.889 120.106 99.7628 120.085C99.7812 120.083 99.8093 120.083 99.8366 120.056ZM126.004 123.634C125.982 123.614 125.926 123.598 125.9 123.607C125.881 123.614 125.856 123.607 125.829 123.642C125.016 125.118 124.117 125.852 123.153 125.852H120.89C119.813 125.823 119.124 125.732 118.83 125.581C118.551 125.438 118.389 125.222 118.336 124.917L118.313 113.6C118.313 112.998 118.695 112.691 119.542 112.668C119.564 112.668 119.604 112.668 119.641 112.633C119.678 112.598 119.813 112.462 119.813 112.462C119.813 112.462 119.84 112.429 119.84 112.396C119.837 112.37 119.825 112.343 119.791 112.31C119.78 112.302 119.752 112.282 119.652 112.282C118.98 112.285 115.188 112.293 115.137 112.293C115.084 112.293 115.063 112.314 115.063 112.314L114.874 112.508L114.866 112.534C114.868 112.574 114.871 112.606 114.918 112.645C114.948 112.679 114.988 112.679 115.004 112.679C115.558 112.686 115.932 112.83 116.137 113.096C116.324 113.33 116.427 113.743 116.44 114.337L116.463 125.286C116.463 125.893 116.069 126.2 115.183 126.22C115.157 126.224 115.132 126.238 115.115 126.258C115.062 126.316 114.968 126.421 114.952 126.435C114.932 126.458 114.934 126.493 114.935 126.507C114.949 126.538 114.97 126.564 114.996 126.585C115.005 126.591 115.031 126.607 115.047 126.607C115.598 126.605 124.869 126.582 124.945 126.582C125.016 126.582 125.058 126.489 125.058 126.489L126.086 123.886C126.086 123.886 126.122 123.78 126.071 123.71C126.044 123.68 126.02 123.654 126.004 123.634ZM137.629 123.666C137.595 123.641 137.566 123.616 137.479 123.641C137.454 123.652 137.43 123.678 137.428 123.69C136.625 125.144 135.73 125.869 134.771 125.869H133.18C131.714 125.869 130.797 125.771 130.441 125.588C130.311 125.529 130.198 125.438 130.112 125.324C130.027 125.21 129.972 125.075 129.952 124.934L129.908 119.762C130.532 119.746 130.565 119.743 131.039 119.743C131.22 119.743 131.405 119.758 131.585 119.762H132.631C133.275 119.762 133.593 120.147 133.593 120.981C133.593 121.046 133.931 121.14 133.933 121.053L134.006 117.541C134.006 117.476 133.675 117.384 133.667 117.467C133.593 118.082 133.436 118.451 133.135 118.651C132.896 118.832 132.466 118.933 131.845 118.947C131.231 118.96 130.614 118.991 129.998 118.991H129.914L129.93 118.109L129.908 113.073H133.702C134.398 113.073 134.938 113.26 135.306 113.627C135.481 113.799 135.687 114.13 135.939 114.638C135.967 114.681 135.998 114.718 136.124 114.68C136.161 114.661 136.211 114.638 136.241 114.613C136.275 114.584 136.238 114.499 136.238 114.499L135.639 112.401C135.639 112.401 135.622 112.31 135.478 112.31C134.357 112.308 126.79 112.308 126.752 112.308C126.725 112.31 126.698 112.32 126.677 112.336L126.49 112.524C126.49 112.524 126.473 112.539 126.485 112.589C126.493 112.614 126.506 112.641 126.544 112.67C126.552 112.68 126.581 112.702 126.633 112.696C127.18 112.704 127.541 112.839 127.729 113.082C127.931 113.349 128.042 113.78 128.057 114.375C128.073 115.108 128.078 116.526 128.078 118.591V125.302C128.078 125.905 127.692 126.21 126.828 126.235C126.766 126.228 126.737 126.269 126.737 126.269L126.576 126.446C126.576 126.446 126.527 126.497 126.567 126.546C126.574 126.563 126.587 126.576 126.606 126.596C126.634 126.615 126.668 126.624 126.702 126.622L136.636 126.598L137.729 123.83C137.729 123.83 137.751 123.799 137.714 123.759C137.679 123.718 137.661 123.685 137.629 123.666ZM153.901 127.509C152.172 127.14 150.154 125.692 148.648 124.16C147.464 122.945 146.727 121.523 145.859 119.985C147.68 119.394 148.603 118.095 148.603 116.129C148.603 115.085 148.188 114.188 147.369 113.472C146.447 112.69 145.161 112.293 143.548 112.293L138.999 112.303C138.884 112.303 138.863 112.341 138.863 112.341C138.863 112.341 138.691 112.508 138.68 112.544C138.667 112.584 138.684 112.614 138.73 112.66C138.765 112.68 138.806 112.691 138.846 112.69C139.386 112.701 139.742 112.833 139.926 113.076C140.13 113.34 140.242 113.775 140.256 114.37C140.263 114.808 140.268 115.515 140.268 116.486C140.268 117.457 140.264 118.69 140.256 120.178L140.213 125.297C140.213 125.902 139.831 126.208 138.976 126.229C138.915 126.23 138.891 126.26 138.891 126.26L138.73 126.42C138.73 126.42 138.678 126.462 138.685 126.514C138.694 126.542 138.711 126.568 138.735 126.586C138.758 126.605 138.787 126.616 138.817 126.617C139.299 126.617 143.333 126.607 143.388 126.607C143.452 126.607 143.469 126.574 143.469 126.574C143.469 126.574 143.608 126.421 143.63 126.396C143.658 126.366 143.659 126.348 143.659 126.339C143.653 126.304 143.635 126.273 143.607 126.252C143.581 126.229 143.497 126.219 143.461 126.219C142.954 126.199 142.599 126.051 142.39 125.78C142.22 125.551 142.12 125.136 142.105 124.539C142.067 123.483 142.046 122.276 142.046 120.937C142.046 120.269 142.053 119.57 142.063 118.837C142.091 115.48 142.105 113.578 142.161 113.107C142.347 113.095 142.537 113.088 142.72 113.088C144.068 113.088 145.13 113.427 145.871 114.086C146.513 114.667 146.839 115.401 146.839 116.278C146.839 117.28 146.47 118.128 145.739 118.804C144.987 119.487 144.582 119.841 143.42 119.874C143.356 119.879 143.293 119.895 143.235 119.922C143.206 119.938 143.128 120.011 143.085 120.052C143.063 120.072 143.048 120.099 143.053 120.126C143.056 120.151 143.068 120.173 143.095 120.2C143.106 120.212 143.119 120.222 143.133 120.228C143.148 120.235 143.164 120.239 143.18 120.239H144.007C145.272 122.377 146.25 123.95 147.293 124.912C148.886 126.404 151.299 127.729 153.515 127.752C153.653 127.753 153.756 127.743 153.842 127.702C153.865 127.686 153.885 127.666 153.901 127.642C153.923 127.585 153.952 127.518 153.901 127.509ZM158.549 126.206C158.043 126.191 157.69 126.041 157.497 125.77C157.309 125.54 157.204 125.125 157.19 124.529C157.175 123.987 157.167 120.413 157.167 113.599C157.167 112.998 157.549 112.693 158.396 112.669C158.42 112.667 158.443 112.661 158.464 112.651C158.485 112.64 158.504 112.626 158.519 112.608C158.519 112.608 158.631 112.503 158.662 112.463C158.697 112.426 158.693 112.364 158.66 112.327C158.645 112.314 158.614 112.282 158.549 112.282C158.019 112.285 154.144 112.293 154.043 112.293C153.93 112.293 153.895 112.336 153.895 112.336L153.77 112.468C153.77 112.468 153.724 112.509 153.72 112.534C153.716 112.56 153.726 112.603 153.768 112.643C153.779 112.65 153.813 112.68 153.859 112.68C154.413 112.686 154.781 112.821 154.966 113.067C155.167 113.33 155.28 113.763 155.294 114.359L155.315 125.286C155.315 125.877 154.942 126.184 154.106 126.22C154.071 126.22 154.007 126.22 153.963 126.264C153.923 126.31 153.882 126.353 153.83 126.41C153.782 126.47 153.789 126.517 153.81 126.546C153.827 126.565 153.848 126.581 153.871 126.592C153.895 126.602 153.921 126.608 153.947 126.607C154.019 126.607 157.817 126.596 158.457 126.595C158.562 126.595 158.6 126.527 158.6 126.527C158.6 126.527 158.654 126.47 158.687 126.419C158.722 126.371 158.738 126.285 158.701 126.248C158.69 126.234 158.628 126.206 158.549 126.206ZM165.57 112.282H165.398L161.128 112.293C161.128 112.293 161.007 112.288 160.945 112.353C160.886 112.418 160.855 112.459 160.855 112.459L160.806 112.514L160.796 112.54C160.798 112.576 160.813 112.61 160.838 112.636C160.852 112.648 160.912 112.68 160.999 112.68C161.509 112.7 161.863 112.842 162.072 113.096C162.256 113.339 162.362 113.762 162.378 114.359L162.398 125.286C162.398 126.745 162.188 127.865 161.78 128.611C161.248 129.589 160.489 130.425 159.566 131.049C159.519 131.083 159.512 131.14 159.53 131.172C159.549 131.209 159.606 131.193 159.622 131.191C160.256 131.045 160.884 130.702 161.559 130.199C162.255 129.685 162.796 129.128 163.164 128.548C163.856 127.444 164.206 126.099 164.206 124.552L164.228 113.602C164.228 113.008 164.603 112.705 165.436 112.669C165.565 112.651 165.602 112.601 165.602 112.601C165.602 112.601 165.674 112.528 165.713 112.479C165.752 112.429 165.755 112.361 165.717 112.324C165.704 112.309 165.655 112.282 165.57 112.282ZM171.431 119.651L173.377 115.003C173.555 115.431 174.404 117.487 175.294 119.651H171.431ZM181.18 126.212C181.158 126.199 181.139 126.2 181.123 126.2C180.606 126.194 180.209 126.034 179.937 125.732C179.772 125.563 179.546 125.158 179.26 124.524C178.042 121.796 176.471 118.126 174.596 113.618L174.027 112.176C174.008 112.132 173.991 112.113 173.949 112.105C173.865 112.101 173.781 112.095 173.697 112.089C173.655 112.087 173.637 112.141 173.637 112.141L167.974 125.239C167.797 125.658 167.521 125.933 167.161 126.062C166.944 126.144 166.666 126.192 166.226 126.209C166.191 126.209 166.175 126.212 166.136 126.212C166.081 126.22 166.029 126.245 165.989 126.285C165.96 126.323 165.907 126.377 165.873 126.414C165.851 126.438 165.827 126.475 165.859 126.529C165.901 126.607 166.015 126.599 166.015 126.599L170.046 126.587C170.141 126.587 170.182 126.513 170.182 126.513L170.294 126.395C170.337 126.353 170.333 126.291 170.311 126.263C170.294 126.242 170.273 126.225 170.248 126.214C170.224 126.204 170.197 126.199 170.17 126.2C169.201 126.194 168.944 126.021 168.944 125.738C168.944 125.627 168.976 125.493 169.047 125.341L171.105 120.429H175.614C176.542 122.685 177.431 124.861 177.574 125.25C177.63 125.382 177.657 125.498 177.657 125.594C177.657 125.986 177.329 126.194 176.565 126.21C176.517 126.21 176.487 126.243 176.487 126.243L176.323 126.403C176.323 126.403 176.266 126.458 176.286 126.497C176.29 126.52 176.308 126.542 176.336 126.571C176.346 126.58 176.364 126.602 176.417 126.599C176.898 126.599 180.952 126.587 180.995 126.587C181.035 126.587 181.047 126.576 181.059 126.562C181.077 126.548 181.234 126.37 181.234 126.37C181.234 126.37 181.255 126.342 181.255 126.325C181.255 126.303 181.236 126.256 181.18 126.212ZM104.312 119.651L106.26 115.003C106.437 115.431 107.285 117.487 108.176 119.651H104.312ZM114.06 126.212C114.044 126.199 114.017 126.2 114.007 126.2C113.49 126.194 113.092 126.034 112.817 125.732C112.655 125.563 112.429 125.158 112.142 124.524C110.924 121.796 109.355 118.126 107.477 113.618L106.906 112.176C106.888 112.132 106.873 112.113 106.833 112.105C106.748 112.101 106.664 112.095 106.579 112.089C106.537 112.087 106.516 112.141 106.516 112.141L100.851 125.239C100.673 125.658 100.4 125.933 100.039 126.062C99.8204 126.144 99.5404 126.192 99.1039 126.209C99.0692 126.209 99.0544 126.212 99.0175 126.212C98.9614 126.219 98.9091 126.244 98.8698 126.285C98.8395 126.323 98.7826 126.377 98.7494 126.414C98.7287 126.438 98.7051 126.475 98.7346 126.529C98.7789 126.607 98.8934 126.599 98.8934 126.599L102.926 126.587C103.017 126.587 103.063 126.513 103.063 126.513C103.063 126.513 103.133 126.436 103.177 126.395C103.216 126.353 103.212 126.291 103.188 126.263C103.172 126.242 103.151 126.226 103.128 126.215C103.104 126.204 103.078 126.199 103.052 126.2C102.077 126.194 101.824 126.021 101.824 125.738C101.824 125.627 101.856 125.493 101.925 125.341L103.985 120.429H108.496C109.423 122.685 110.313 124.861 110.457 125.25C110.513 125.382 110.537 125.498 110.537 125.594C110.537 125.986 110.21 126.194 109.447 126.21C109.4 126.21 109.368 126.243 109.368 126.243L109.206 126.403C109.206 126.403 109.147 126.458 109.163 126.497C109.175 126.526 109.193 126.551 109.217 126.571C109.225 126.58 109.243 126.602 109.297 126.599C109.779 126.599 113.835 126.587 113.876 126.587C113.914 126.587 113.928 126.576 113.942 126.562C113.953 126.548 114.117 126.37 114.117 126.37C114.117 126.37 114.136 126.342 114.136 126.325C114.134 126.303 114.117 126.256 114.06 126.212Z" fill="#1A1A28"/>
<path d="M216.99 123.726C217.073 123.702 217.107 123.726 217.141 123.751C217.173 123.771 217.19 123.804 217.225 123.845C217.261 123.884 217.242 123.916 217.242 123.916L216.165 126.637C216.165 126.637 216.157 126.684 216.092 126.684C215.297 126.687 206.259 126.708 206.209 126.708C206.158 126.708 206.126 126.69 206.119 126.681C206.099 126.662 206.081 126.648 206.071 126.631C206.039 126.583 206.086 126.532 206.086 126.532L206.249 126.354C206.249 126.354 206.278 126.314 206.34 126.32C207.202 126.295 207.588 125.991 207.588 125.387V118.677C207.588 116.611 207.584 115.193 207.567 114.461C207.555 113.865 207.441 113.434 207.242 113.167C207.055 112.924 206.689 112.79 206.143 112.781C206.09 112.787 206.064 112.765 206.057 112.756C206.016 112.726 206.004 112.699 205.998 112.675C205.984 112.624 206.004 112.61 206.004 112.61L206.184 112.421C206.184 112.421 206.221 112.394 206.26 112.394C206.298 112.394 213.869 112.394 214.989 112.395C215.137 112.395 215.151 112.486 215.151 112.486L215.751 114.584C215.751 114.584 215.784 114.669 215.752 114.698C215.723 114.723 215.67 114.746 215.633 114.765C215.507 114.803 215.478 114.766 215.448 114.723C215.202 114.215 214.99 113.884 214.816 113.712C214.447 113.346 213.909 113.158 213.215 113.158H209.421L209.442 118.195L209.421 119.076H209.508C210.127 119.076 210.74 119.046 211.358 119.033C211.978 119.019 212.408 118.917 212.647 118.737C212.949 118.536 213.104 118.167 213.173 117.553C213.187 117.47 213.516 117.561 213.514 117.626L213.444 121.138C213.441 121.225 213.105 121.132 213.105 121.066C213.105 120.232 212.788 119.848 212.144 119.848H211.092C210.916 119.844 210.734 119.829 210.551 119.829C210.077 119.829 210.045 119.831 209.421 119.848L209.461 125.02C209.481 125.161 209.537 125.295 209.623 125.409C209.709 125.524 209.822 125.614 209.952 125.673C210.307 125.857 211.224 125.954 212.692 125.954H214.284C215.237 125.954 216.136 125.23 216.941 123.775C216.951 123.753 216.969 123.736 216.99 123.726Z" fill="#1A1A28"/>
<path d="M204.536 121.529C204.613 121.506 204.692 121.587 204.692 121.587L204.851 121.734C204.897 121.777 204.888 121.86 204.881 121.897C204.59 123.194 204.36 124.124 204.178 124.774C204.148 124.883 204.085 124.98 203.997 125.051C202.485 126.291 200.41 126.914 197.815 126.914C195.736 126.914 193.948 126.306 192.512 125.105C190.927 123.79 190.119 121.991 190.119 119.762C190.119 117.675 190.811 115.9 192.175 114.486C193.615 112.99 195.515 112.233 197.814 112.233C199.915 112.233 201.752 112.723 203.305 113.731C203.424 113.809 203.663 113.996 203.699 114.208C203.81 114.836 203.984 115.729 204.209 116.941C204.234 117.019 204.207 117.041 204.183 117.06L204.182 117.06C204.148 117.079 204.09 117.098 204.049 117.111C204.014 117.121 203.865 117.159 203.82 117.021C203.171 115.476 202.318 114.393 201.268 113.787C200.461 113.325 199.418 113.091 198.164 113.091C196.288 113.091 194.777 113.809 193.668 115.232C192.689 116.493 192.186 118.016 192.186 119.762C192.186 121.713 192.758 123.278 193.878 124.422C195.004 125.557 196.5 126.139 198.335 126.139C201.46 126.139 203.324 124.243 204.448 121.625C204.469 121.558 204.516 121.538 204.535 121.529L204.536 121.529Z" fill="#1A1A28"/>
<path d="M228.969 112.394L232.573 112.395C232.611 112.393 232.649 112.403 232.681 112.424C232.701 112.442 232.717 112.465 232.727 112.49C232.742 112.533 232.7 112.577 232.7 112.577L232.545 112.731C232.545 112.731 232.505 112.786 232.449 112.785C231.6 112.8 231.322 113.093 231.322 113.704C231.322 121.514 231.304 125.785 231.313 126.718C231.313 126.874 231.274 126.897 231.259 126.91C231.188 126.959 231.129 126.913 231.114 126.9C231.106 126.888 231.099 126.881 231.092 126.871C230.456 126.218 227.922 123.491 225.5 120.889L222.104 117.237L221.008 116.06L220.7 115.731L220.655 115.683C220.655 121.162 220.662 124.09 220.677 124.63C220.692 125.226 220.795 125.639 220.985 125.871C221.186 126.153 221.389 126.298 221.892 126.311C221.939 126.311 221.985 126.328 222.021 126.359C222.051 126.389 222.049 126.461 222.009 126.512L221.916 126.628C221.902 126.646 221.883 126.662 221.863 126.674C221.842 126.686 221.819 126.693 221.796 126.696C221.306 126.696 218.29 126.707 218.214 126.707C218.186 126.708 218.158 126.704 218.132 126.694C218.106 126.684 218.083 126.669 218.063 126.65C218.02 126.598 218.1 126.487 218.1 126.487L218.19 126.391C218.19 126.391 218.256 126.316 218.361 126.32C219.183 126.285 219.478 125.98 219.478 125.387V112.977C219.484 112.7 219.482 112.569 219.475 112.288C219.475 112.15 219.495 112.128 219.528 112.113C219.651 112.056 219.725 112.107 219.796 112.177C220.162 112.617 221.096 113.704 222.731 115.48C224.472 117.36 226.935 120.017 230.14 123.476C230.138 118.855 230.123 115.93 230.096 114.461C230.096 113.865 229.996 113.444 229.814 113.203C229.593 112.928 229.37 112.786 228.832 112.782C228.801 112.776 228.771 112.764 228.745 112.746C228.723 112.723 228.708 112.705 228.703 112.686C228.683 112.638 228.735 112.588 228.735 112.588L228.888 112.421C228.888 112.421 228.917 112.394 228.969 112.394Z" fill="#1A1A28"/>
<path d="M234.767 112.381L246.681 112.395C246.794 112.387 246.783 112.542 246.783 112.542V114.566C246.783 114.566 246.783 114.65 246.741 114.675C246.706 114.693 246.639 114.734 246.639 114.734C246.639 114.734 246.592 114.772 246.535 114.76C246.511 114.755 246.488 114.744 246.47 114.727C246.451 114.711 246.438 114.689 246.432 114.665C246.341 114.183 246.229 113.86 246.101 113.685C245.837 113.328 245.356 113.141 244.661 113.141H241.171C241.171 119.935 241.186 123.797 241.216 124.61C241.245 125.209 241.351 125.626 241.524 125.855C241.719 126.124 242.07 126.273 242.585 126.292C242.641 126.289 242.697 126.303 242.745 126.331C242.786 126.37 242.773 126.454 242.734 126.505C242.688 126.557 242.623 126.625 242.623 126.625C242.612 126.643 242.597 126.658 242.578 126.668C242.559 126.678 242.538 126.682 242.517 126.681L237.969 126.692C237.882 126.687 237.851 126.65 237.838 126.633C237.782 126.574 237.857 126.497 237.857 126.497L237.99 126.349C237.99 126.349 238.035 126.302 238.113 126.306C238.964 126.276 239.346 125.969 239.346 125.372L239.32 119.937V113.141H236.664C235.514 113.141 234.473 113.659 233.48 114.71C233.43 114.766 233.394 114.772 233.364 114.762C233.312 114.749 233.257 114.718 233.221 114.698C233.206 114.691 233.18 114.664 233.173 114.654C233.144 114.61 233.142 114.583 233.144 114.551L233.144 114.531L234.621 112.448C234.639 112.426 234.661 112.409 234.686 112.397C234.712 112.386 234.739 112.38 234.767 112.381Z" fill="#1A1A28"/>
<path d="M266.611 117.76L270.04 119.442C271.301 120.242 271.949 121.347 271.949 122.718C271.949 123.972 271.472 125.002 270.534 125.774C269.675 126.499 268.602 126.869 267.347 126.869C265.732 126.869 264.311 126.402 263.1 125.441C263.009 125.362 262.979 125.236 262.965 125.172C262.919 124.883 262.89 124.528 262.877 124.109C262.867 123.596 262.828 123.195 262.818 122.841C262.817 122.778 263.085 122.747 263.087 122.742C263.145 122.727 263.205 122.76 263.219 122.813C263.648 124.088 264.274 124.979 265.074 125.464C265.646 125.827 266.392 126.013 267.305 126.013C268.189 126.013 268.928 125.772 269.498 125.304C270.068 124.836 270.358 124.222 270.358 123.476C270.358 122.415 269.77 121.526 268.602 120.837L265.216 119.092C263.985 118.28 263.36 117.176 263.36 115.817C263.36 114.715 263.815 113.81 264.708 113.133C265.509 112.534 266.448 112.232 267.5 112.232C268.942 112.232 270.09 112.585 270.929 113.325C271 113.64 271.04 114.068 271.062 114.617C271.084 115.104 271.115 115.487 271.13 115.817C271.139 115.919 271.046 115.963 271.046 115.963L270.904 116.025C270.891 116.032 270.876 116.035 270.861 116.036C270.846 116.037 270.831 116.035 270.817 116.029C270.788 116.025 270.762 116.009 270.743 115.987C270.389 114.753 269.872 113.922 269.204 113.492C268.774 113.212 268.179 113.071 267.435 113.071C266.706 113.071 266.095 113.238 265.624 113.574C265.086 113.94 264.818 114.476 264.818 115.165C264.818 116.225 265.417 117.099 266.611 117.76Z" fill="#1A1A28"/>
<path d="M255.499 120.05C256.368 121.588 257.11 123.011 258.288 124.226C259.792 125.76 261.81 127.205 263.543 127.574C263.59 127.587 263.563 127.651 263.543 127.707C263.535 127.721 263.499 127.759 263.484 127.766C263.398 127.805 263.292 127.82 263.154 127.816C260.939 127.792 258.531 126.469 256.932 124.978C255.888 124.016 254.914 122.443 253.645 120.306H252.824C252.78 120.306 252.745 120.276 252.73 120.268C252.708 120.24 252.694 120.215 252.693 120.193C252.689 120.164 252.705 120.137 252.723 120.115C252.77 120.067 252.822 120.024 252.878 119.987C252.934 119.961 252.994 119.943 253.055 119.936C254.222 119.904 254.626 119.553 255.375 118.87C256.109 118.194 256.478 117.343 256.478 116.343C256.478 115.469 256.155 114.732 255.512 114.154C254.763 113.492 253.709 113.154 252.355 113.154C252.178 113.154 251.99 113.16 251.8 113.173C251.747 113.63 251.732 115.442 251.706 118.629L251.704 118.902C251.693 119.633 251.688 120.335 251.688 121.002C251.688 122.341 251.707 123.548 251.745 124.604C251.76 125.203 251.86 125.617 252.03 125.845C252.237 126.115 252.595 126.264 253.101 126.283C253.136 126.285 253.223 126.292 253.247 126.316C253.285 126.348 253.296 126.375 253.296 126.405C253.298 126.412 253.296 126.433 253.273 126.461C253.248 126.488 253.115 126.637 253.115 126.637C253.115 126.637 253.091 126.67 253.031 126.67C252.972 126.67 248.939 126.681 248.457 126.681C248.402 126.68 248.372 126.65 248.359 126.637C248.342 126.617 248.334 126.597 248.325 126.583C248.32 126.528 248.37 126.484 248.37 126.484L248.532 126.324C248.532 126.324 248.556 126.295 248.614 126.294C249.47 126.273 249.852 125.967 249.852 125.36L249.896 120.242C249.901 118.755 249.905 117.52 249.905 116.55C249.905 115.581 249.901 114.875 249.896 114.436C249.88 113.841 249.769 113.407 249.568 113.141C249.383 112.901 249.025 112.768 248.488 112.755L248.483 112.755C248.455 112.754 248.41 112.751 248.372 112.723C248.326 112.683 248.307 112.648 248.32 112.61C248.331 112.572 248.505 112.407 248.505 112.407C248.505 112.407 248.523 112.37 248.639 112.37L253.185 112.36C254.802 112.36 256.087 112.754 257.008 113.54C257.828 114.255 258.246 115.15 258.246 116.194C258.246 118.162 257.319 119.459 255.499 120.05Z" fill="#1A1A28"/>
<path d="M186.16 97.8448V68.0005L184.405 68V97.8667L186.16 97.8448Z" fill="#1A1A28"/>
<path d="M178.86 97.8448V68.0005L177.105 68V97.8667L178.86 97.8448Z" fill="#1A1A28"/>
<path d="M171.559 97.8448V68.0005L169.805 68V97.8667L171.559 97.8448Z" fill="#1A1A28"/>
</svg>
