<svg width="286" height="208" viewBox="0 0 286 208" fill="none" xmlns="http://www.w3.org/2000/svg">
<rect width="285.5" height="208" fill="#F0EFE9"/>
<g clip-path="url(#clip0_552_286)">
<path fill-rule="evenodd" clip-rule="evenodd" d="M60.9403 99.6558H224.525C226.17 99.6558 226.421 97.0654 224.767 97.0654H61.1825C59.5376 97.0654 59.285 99.6558 60.9403 99.6558Z" fill="#1A1A28"/>
<path fill-rule="evenodd" clip-rule="evenodd" d="M63.8986 114.125H59.2988V109.39H73.6009V114.125H68.9621V135.765H63.8986V114.125Z" fill="#1A1A28"/>
<path fill-rule="evenodd" clip-rule="evenodd" d="M76.2676 135.764H81.3311V109.39H76.2676V135.764Z" fill="#1A1A28"/>
<path fill-rule="evenodd" clip-rule="evenodd" d="M96.8692 124.182H90.9161V131.304H97.6418V135.765H85.8525V109.39H97.178V113.851H90.9161V119.917H96.8692V124.182Z" fill="#1A1A28"/>
<path fill-rule="evenodd" clip-rule="evenodd" d="M100.502 130.521C101.546 131.108 103.324 131.538 104.793 131.538C107.19 131.538 108.348 130.286 108.348 128.564C108.348 126.647 107.19 125.707 104.986 124.259C101.43 122.069 100.078 119.29 100.078 116.903C100.078 112.678 102.86 109.155 108.31 109.155C110.012 109.155 111.635 109.625 112.407 110.094L111.596 114.516C110.861 114.047 109.741 113.617 108.271 113.617C106.108 113.617 105.064 114.947 105.064 116.356C105.064 117.921 105.837 118.743 108.658 120.464C112.099 122.578 113.374 125.239 113.374 128.016C113.374 132.83 109.857 135.999 104.754 135.999C102.667 135.999 100.618 135.452 99.7676 134.943L100.502 130.521Z" fill="#1A1A28"/>
<path fill-rule="evenodd" clip-rule="evenodd" d="M121.376 135.764H116.312V109.39H121.376V135.764ZM123.423 106.965H114.34V103.874H123.423V106.965Z" fill="#1A1A28"/>
<path fill-rule="evenodd" clip-rule="evenodd" d="M130.962 131.93C131.27 132.008 131.618 132.008 132.082 132.008C134.13 132.008 135.831 130.756 135.831 128.057C135.831 125.434 134.053 124.065 132.043 124.026H130.962V131.93ZM130.962 120.23H132.043C133.86 120.23 135.25 118.665 135.25 116.512C135.25 114.595 134.363 113.109 132.276 113.109C131.734 113.109 131.27 113.147 130.962 113.264V120.23ZM125.897 109.781C127.443 109.429 129.453 109.272 131.656 109.272C134.092 109.272 136.45 109.586 138.266 111.152C139.658 112.325 140.237 114.087 140.237 115.926C140.237 118.273 139.04 120.543 136.45 121.678V121.834C139.464 122.695 141.088 125.239 141.088 128.135C141.088 130.325 140.392 132.008 139.156 133.299C137.609 135.021 134.982 135.96 130.613 135.96C128.681 135.96 127.058 135.843 125.897 135.686V109.781Z" fill="#1A1A28"/>
<path fill-rule="evenodd" clip-rule="evenodd" d="M143.986 130.521C145.031 131.108 146.809 131.538 148.277 131.538C150.674 131.538 151.833 130.286 151.833 128.564C151.833 126.647 150.674 125.707 148.47 124.259C144.915 122.069 143.562 119.29 143.562 116.903C143.562 112.678 146.345 109.155 151.795 109.155C153.495 109.155 155.119 109.625 155.891 110.094L155.08 114.516C154.346 114.047 153.226 113.617 151.756 113.617C149.591 113.617 148.549 114.947 148.549 116.356C148.549 117.921 149.32 118.743 152.142 120.464C155.584 122.578 156.858 125.239 156.858 128.016C156.858 132.83 153.34 135.999 148.239 135.999C146.152 135.999 144.103 135.452 143.252 134.943L143.986 130.521Z" fill="#1A1A28"/>
<path fill-rule="evenodd" clip-rule="evenodd" d="M168.144 125.746L167.294 120.229C167.022 118.625 166.675 116.003 166.445 114.241H166.328C166.057 116.003 165.671 118.742 165.399 120.268L164.434 125.746H168.144ZM163.931 129.738L162.771 135.764H157.863L163.506 109.39H169.574L174.639 135.764H169.729L168.607 129.738H163.931Z" fill="#1A1A28"/>
<path fill-rule="evenodd" clip-rule="evenodd" d="M182.562 121.285H183.451C185.653 121.285 186.93 119.485 186.93 117.177C186.93 114.946 186.04 113.342 183.759 113.263C183.336 113.263 182.832 113.303 182.562 113.42V121.285ZM177.499 109.781C179.083 109.468 181.094 109.272 183.026 109.272C185.808 109.272 188.282 109.664 189.983 111.228C191.569 112.676 192.032 114.437 192.032 116.708C192.032 119.525 190.678 122.069 188.012 123.32V123.398C189.791 124.103 190.678 125.786 191.182 128.603C191.684 131.537 192.38 134.786 192.844 135.764H187.549C187.239 135.02 186.658 132.359 186.272 129.464C185.808 126.177 184.997 125.238 183.297 125.238H182.562V135.764H177.499V109.781Z" fill="#1A1A28"/>
<path fill-rule="evenodd" clip-rule="evenodd" d="M210.122 135.061C209 135.53 206.604 136 204.71 136C201.734 136 199.492 135.139 197.753 133.378C195.51 131.188 194.313 127.274 194.389 122.734C194.505 113.148 199.916 109.156 205.445 109.156C207.416 109.156 208.884 109.547 209.697 109.938L208.807 114.36C208.072 114.008 207.106 113.773 205.831 113.773C202.391 113.773 199.647 116.16 199.647 123.048C199.647 129.386 202.081 131.656 204.44 131.656C204.903 131.656 205.252 131.618 205.445 131.539V125.161H203.125V120.974H210.122V135.061Z" fill="#1A1A28"/>
<path fill-rule="evenodd" clip-rule="evenodd" d="M213.329 130.521C214.372 131.108 216.151 131.538 217.619 131.538C220.016 131.538 221.175 130.286 221.175 128.564C221.175 126.647 220.016 125.707 217.813 124.259C214.256 122.069 212.904 119.29 212.904 116.903C212.904 112.678 215.687 109.155 221.137 109.155C222.838 109.155 224.462 109.625 225.234 110.094L224.423 114.516C223.688 114.047 222.567 113.617 221.099 113.617C218.934 113.617 217.891 114.947 217.891 116.356C217.891 117.921 218.663 118.743 221.484 120.464C224.926 122.578 226.201 125.239 226.201 128.016C226.201 132.83 222.683 135.999 217.581 135.999C215.494 135.999 213.445 135.452 212.594 134.943L213.329 130.521Z" fill="#1A1A28"/>
<path fill-rule="evenodd" clip-rule="evenodd" d="M60.2612 72.1616H61.4138V89.4551H66.7769V90.4614H60.2612V72.1616Z" fill="#1A1A28"/>
<path fill-rule="evenodd" clip-rule="evenodd" d="M74.8225 83.1576L73.67 77.9989C73.3486 76.587 73.1064 75.2842 72.8653 73.8176H72.7574C72.5427 75.311 72.2753 76.6683 71.9791 78.0257L70.8541 83.1576H74.8225ZM70.6131 84.1616L69.1644 90.4603H68.0371L72.3017 72.1616H73.4014L77.7188 90.4603H76.5398L75.0911 84.1616H70.6131Z" fill="#1A1A28"/>
<path fill-rule="evenodd" clip-rule="evenodd" d="M80.5888 73.1669H77.2104V72.1616H85.1208V73.1669H81.7413V90.4614H80.5888V73.1669Z" fill="#1A1A28"/>
<path fill-rule="evenodd" clip-rule="evenodd" d="M90.7252 90.4614L86.541 72.1616H87.7211L89.7862 81.1761C90.2683 83.2935 90.9123 86.1721 91.2613 88.6148H91.3692C91.6631 86.1454 92.2795 83.376 92.7903 81.1227L94.8279 72.1616H95.9816L91.7434 90.4614H90.7252Z" fill="#1A1A28"/>
<path fill-rule="evenodd" clip-rule="evenodd" d="M98.314 90.46H99.4665V72.1602H98.314V90.46Z" fill="#1A1A28"/>
<path fill-rule="evenodd" clip-rule="evenodd" d="M105.099 72.1616H106.252V85.7363C106.252 89.1041 105.153 90.6788 102.551 90.6788C102.148 90.6788 101.801 90.6509 101.478 90.5428L101.585 89.5376C101.827 89.5922 102.148 89.6189 102.471 89.6189C104.214 89.6189 105.099 88.9135 105.099 85.6828V72.1616Z" fill="#1A1A28"/>
<path fill-rule="evenodd" clip-rule="evenodd" d="M115.343 83.1576L114.191 77.9989C113.868 76.587 113.627 75.2842 113.385 73.8176H113.278C113.063 75.311 112.795 76.6683 112.5 78.0257L111.373 83.1576H115.343ZM111.132 84.1616L109.685 90.4603H108.558L112.822 72.1616H113.922L118.239 90.4603H117.06L115.612 84.1616H111.132Z" fill="#1A1A28"/>
<path fill-rule="evenodd" clip-rule="evenodd" d="M120.277 88.8053C120.814 89.1854 121.806 89.5642 122.638 89.5642C124.676 89.5642 125.991 88.0721 125.991 85.8187C125.991 83.8908 124.917 82.6415 123.577 81.5015C122.798 80.8228 120.171 79.2493 120.171 76.4532C120.171 73.792 122.074 72 124.381 72C125.453 72 126.339 72.38 126.713 72.6787L126.258 73.6827C125.829 73.3574 125.078 73.0587 124.193 73.0587C122.262 73.0587 121.351 74.6868 121.351 76.1255C121.351 78.38 122.531 79.1935 124.113 80.4439C126.15 82.0721 127.17 83.6467 127.17 85.7362C127.17 88.7775 125.132 90.6241 122.665 90.6241C121.565 90.6241 120.331 90.1894 119.875 89.7827L120.277 88.8053Z" fill="#1A1A28"/>
<path fill-rule="evenodd" clip-rule="evenodd" d="M135.134 81.1481H136.153C138.378 81.1481 139.989 79.5467 139.989 76.9947C139.989 74.5507 138.994 73.0841 136.367 73.0841C135.885 73.0841 135.457 73.112 135.134 73.1934V81.1481ZM133.981 72.4322C134.706 72.1614 135.59 72.0801 136.421 72.0801C138.112 72.0801 139.21 72.5147 140.015 73.3561C140.793 74.1986 141.195 75.42 141.195 76.7773C141.195 79.3561 140.015 80.7402 138.218 81.5827V81.6373C139.613 81.9894 140.363 83.3747 140.793 86.0359C141.249 88.832 141.543 89.9441 141.759 90.4601H140.606C140.335 89.8895 140.015 88.2335 139.613 85.8453C139.157 83.1841 138.245 82.0708 136.127 82.0708H135.134V90.4601H133.981V72.4322Z" fill="#1A1A28"/>
<path fill-rule="evenodd" clip-rule="evenodd" d="M149.858 81.3667H145.083V89.4295H150.555V90.4614H143.931V72.1616H150.206V73.1936H145.083V80.3348H149.858V81.3667Z" fill="#1A1A28"/>
<path fill-rule="evenodd" clip-rule="evenodd" d="M153.907 81.5016C154.173 81.5551 154.442 81.583 154.872 81.583C157.043 81.583 158.76 80.1978 158.76 77.0752C158.76 75.0136 157.929 73.0844 155.221 73.0844C154.656 73.0844 154.228 73.1402 153.907 73.2216V81.5016ZM152.752 72.4337C153.476 72.2163 154.228 72.0815 155.327 72.0815C156.722 72.0815 157.982 72.5429 158.76 73.3843C159.511 74.1989 159.966 75.4203 159.966 77.0496C159.966 78.5417 159.671 79.4924 159.136 80.3616C158.224 81.827 156.641 82.5882 154.95 82.5882C154.523 82.5882 154.228 82.5882 153.907 82.5324V90.4604H152.752V72.4337Z" fill="#1A1A28"/>
<path fill-rule="evenodd" clip-rule="evenodd" d="M163.642 72.1616V84.6509C163.642 88.3429 164.926 89.6189 166.565 89.6189C168.414 89.6189 169.567 88.1535 169.567 84.6509V72.1616H170.719V84.5149C170.719 89.2935 168.682 90.6788 166.509 90.6788C164.445 90.6788 162.487 89.4016 162.487 84.8949V72.1616H163.642Z" fill="#1A1A28"/>
<path fill-rule="evenodd" clip-rule="evenodd" d="M175.2 89.4296C175.467 89.4842 175.87 89.5377 176.405 89.5377C178.98 89.5377 180.509 88.0455 180.509 85.3575C180.509 82.4255 178.47 81.067 176.193 81.0403H175.2V89.4296ZM175.2 80.0897H176.274C178.203 80.0897 179.946 78.6242 179.946 76.4523C179.946 74.551 179.086 73.0856 176.405 73.0856C175.87 73.0856 175.467 73.1402 175.2 73.2216V80.0897ZM174.046 72.4337C174.77 72.2163 175.547 72.0815 176.461 72.0815C178.068 72.0815 179.302 72.515 180.079 73.3297C180.751 74.0083 181.154 75.0403 181.154 76.3442C181.154 78.3523 180.027 79.7922 178.283 80.4441V80.4976C180.377 81.0403 181.718 82.723 181.718 85.3575C181.718 86.8497 181.232 88.0978 180.455 88.995C179.463 90.1629 177.882 90.5429 176.38 90.5429C175.064 90.5429 174.448 90.4616 174.046 90.379V72.4337Z" fill="#1A1A28"/>
<path fill-rule="evenodd" clip-rule="evenodd" d="M184.076 72.1616H185.229V89.4551H190.592V90.4614H184.076V72.1616Z" fill="#1A1A28"/>
<path fill-rule="evenodd" clip-rule="evenodd" d="M192.71 90.46H193.864V72.1602H192.71V90.46Z" fill="#1A1A28"/>
<path fill-rule="evenodd" clip-rule="evenodd" d="M197.243 72.1616H198.395V81.1483H198.448C198.931 80.3882 199.334 79.6828 199.707 79.0309L203.678 72.1616H204.993L200.325 79.8723L205.154 90.4614H203.891L199.548 80.8775L198.395 82.7775V90.4614H197.243V72.1616Z" fill="#1A1A28"/>
<path fill-rule="evenodd" clip-rule="evenodd" d="M213.281 83.1576L212.126 77.9989C211.803 76.587 211.563 75.2842 211.322 73.8176H211.214C211 75.311 210.731 76.6683 210.436 78.0257L209.309 83.1576H213.281ZM209.069 84.1616L207.619 90.4603H206.494L210.76 72.1616H211.858L216.175 90.4603H214.995L213.548 84.1616H209.069Z" fill="#1A1A28"/>
<path fill-rule="evenodd" clip-rule="evenodd" d="M218.214 88.8053C218.751 89.1854 219.742 89.5642 220.573 89.5642C222.61 89.5642 223.926 88.0721 223.926 85.8187C223.926 83.8908 222.852 82.6415 221.512 81.5015C220.733 80.8228 218.107 79.2493 218.107 76.4532C218.107 73.792 220.009 72 222.316 72C223.39 72 224.274 72.38 224.649 72.6787L224.193 73.6827C223.764 73.3574 223.014 73.0587 222.129 73.0587C220.197 73.0587 219.287 74.6868 219.287 76.1255C219.287 78.38 220.466 79.1935 222.049 80.4439C224.086 82.0721 225.105 83.6467 225.105 85.7362C225.105 88.7775 223.066 90.6241 220.601 90.6241C219.499 90.6241 218.268 90.1894 217.81 89.7827L218.214 88.8053Z" fill="#1A1A28"/>
</g>
<defs>
<clipPath id="clip0_552_286">
<rect width="166.902" height="64" fill="white" transform="translate(59.2988 72)"/>
</clipPath>
</defs>
</svg>
